<svg width="152" height="34" viewBox="0 0 152 34" fill="none" xmlns="http://www.w3.org/2000/svg">
<g clip-path="url(#clip0_104_656)">
<path d="M107.288 7.30511C107.989 7.24915 108.694 7.26631 109.391 7.35633C112.068 7.71836 115.573 9.59475 115.791 12.7937C115.846 13.5909 113.823 13.3293 113.311 13.2418C112.748 12.6351 112.475 11.8604 111.819 11.2515C109.788 9.36521 105.947 9.43855 104.037 11.4693C102.12 13.6512 102.844 16.6775 102.717 19.3144C102.464 24.5815 108.484 26.5717 112.056 23.3191C113.143 22.3289 113.369 20.3784 113.305 18.9047C112.265 18.8478 110.909 18.8854 109.846 18.8849C109.519 18.874 109.029 18.9421 108.76 18.735C108.567 18.5859 108.49 18.3105 108.46 18.0796C108.401 17.6148 108.416 16.9284 108.715 16.5498C108.85 16.3802 109.02 16.3743 109.222 16.3529C109.883 16.2829 115.437 16.2178 115.735 16.4664C115.973 16.6654 116.058 16.9859 116.081 17.2843C116.122 17.8272 116.088 18.3999 116.082 18.9453C116.059 21.1072 115.824 23.1867 114.361 24.8927C112.976 26.5073 110.917 27.2825 108.836 27.4417C106.576 27.6146 104.184 27.1415 102.431 25.6303C100.735 24.1686 100.126 22.0491 99.9694 19.8854C99.8996 18.9243 99.9197 17.9475 99.9204 16.984C99.9219 14.3825 99.9924 11.7981 101.789 9.72674C103.211 8.08679 105.179 7.45438 107.288 7.30511Z" fill="#232121"></path>
<path d="M67.7915 12.3532C70.0327 12.2678 71.2535 12.2243 73.1737 13.788C74.3707 14.7629 75.1957 16.7744 75.2914 18.273C75.3181 18.6882 75.4339 20.3212 75.1349 20.5948C74.9813 20.7618 74.6838 20.8475 74.4546 20.857C71.3175 20.9868 68.136 20.8157 65 20.9273C65.0255 21.1779 65.0291 21.4428 65.0573 21.6924C65.378 24.5375 68.2861 25.5621 70.7426 24.6791C71.5081 24.404 71.9788 23.9457 72.5654 23.4388C72.855 23.0814 74.0964 23.2148 74.557 23.2397L75.0288 23.8261C74.7981 24.4214 74.6267 24.921 74.2172 25.4223C73.2725 26.5803 71.429 27.2249 69.9886 27.3708C68.0659 27.5655 66.3707 27.2983 64.8516 26.0473C63.4539 24.8965 62.57 23.0302 62.4316 21.2344C62.2429 18.7869 62.3824 16.4403 64.0155 14.4593C64.8908 13.3976 66.4379 12.4837 67.7915 12.3532ZM64.975 18.537C66.1829 18.6527 67.5669 18.6187 68.7939 18.6101C69.9102 18.6154 71.6835 18.6674 72.7427 18.5356C72.5801 16.0758 71.3556 14.9573 68.9463 14.7313C66.5457 14.9074 65.2482 16.117 64.975 18.537Z" fill="#B98833"></path>
<path d="M41.2044 7.58334C41.7554 7.52677 42.6642 7.56151 43.2436 7.56337L46.902 7.57042C48.7299 7.57235 50.5604 7.5428 52.3865 7.57057C52.8036 7.57688 53.1797 7.8318 53.2007 8.26853C53.2286 8.8469 53.338 9.50649 52.9484 9.99385C52.5344 10.1876 44.1992 10.1978 43.2692 10.1226C43.3394 12.2033 43.299 14.4431 43.305 16.5404C46.1293 16.6814 48.9715 16.5452 51.7978 16.6015C51.9589 16.6047 52.3232 16.6529 52.4268 16.7589C52.656 16.993 52.6282 17.5521 52.6388 17.8646C52.6503 17.9472 52.6568 18.0306 52.6584 18.1141C52.6656 18.5235 52.5612 19.0075 52.0588 19.0437C51.0382 19.1174 49.9915 19.0876 48.9662 19.0867C47.0666 19.0778 45.1671 19.0842 43.2677 19.1058C43.3575 21.5375 43.3095 24.0369 43.2598 26.4691C43.2403 27.4278 41.1011 27.2796 40.7253 26.9124C40.6342 26.5196 40.6004 26.1195 40.5876 25.7171C40.537 24.1136 40.4649 8.4758 40.6752 7.94628C40.7517 7.75341 41.0274 7.6624 41.2044 7.58334Z" fill="#B98833"></path>
<path d="M119.788 12.5557C120.239 12.5456 121.496 12.464 121.756 12.8137C122.163 13.5193 121.893 14.7122 121.963 15.4947C122.202 18.1799 121.166 22.0676 123.228 24.1404C123.876 24.7911 125.005 24.9881 125.861 24.9332C129.595 24.6936 129.524 21.7519 129.52 18.8633C129.518 17.4259 129.508 15.9884 129.491 14.551C129.479 13.24 129.317 11.9026 131.864 12.7619C132.286 12.9043 132.136 16.1294 132.131 16.8887L132.137 22.8437C132.137 24.082 132.22 25.9587 131.969 27.0917C131.045 27.1755 130.567 27.1892 129.651 27.0707C129.531 26.6001 129.485 26.2 129.422 25.7189C129.257 25.89 129.087 26.0565 128.912 26.2182C126.808 28.1513 122.763 27.8078 120.89 25.7084C118.997 23.5864 119.418 20.4871 119.384 17.8597C119.365 16.3317 119.324 14.7638 119.426 13.2435C119.448 12.9109 119.548 12.7755 119.788 12.5557Z" fill="#232121"></path>
<path d="M77.8984 12.6309C78.3992 12.6138 79.6381 12.4842 79.9668 12.7994C81.4201 14.1914 82.6093 16.2149 83.9625 17.6914C84.9908 16.6686 87.3455 13.1788 88.1979 12.6283C88.8901 12.6034 90.1684 12.3814 90.5237 13.018C90.5972 13.7393 89.7804 14.5733 89.3501 15.1316C88.2499 16.5588 87.0554 17.9199 85.9552 19.3474C85.5902 19.8208 85.8313 20.0588 86.1466 20.4513C87.6089 22.2621 89.1223 24.0486 90.5104 25.9154C90.753 26.2409 90.8843 26.5767 90.6343 26.9308C90.4436 27.1018 90.158 27.1227 89.9028 27.165C89.3812 27.1844 88.9331 27.1603 88.4116 27.1336C87.3603 26.414 84.3157 21.9164 83.8475 21.8841C83.1005 22.5386 82.4305 23.5737 81.8177 24.3753C81.1159 25.278 80.3993 26.1687 79.6678 27.0471C79.1306 27.1524 78.4377 27.2691 77.8976 27.1783C77.6706 27.1402 77.4288 27.0636 77.2923 26.8649C76.5177 25.7373 81.8571 21.0381 82.0618 19.7836C82.0982 19.5592 81.9372 19.2884 81.8229 19.1073C81.4913 18.5812 81.0247 18.0986 80.6322 17.6144C79.7286 16.4975 78.805 15.3866 77.9303 14.2469C77.6558 13.8886 77.319 13.4407 77.382 12.9669C77.4785 12.775 77.6929 12.7177 77.8984 12.6309Z" fill="#B98833"></path>
<path d="M15.2222 9.23139C15.0124 9.28677 14.7784 9.37221 14.5715 9.32997C14.0006 8.13344 13.4194 6.95034 12.5374 5.94639C12.116 5.4668 9.97906 3.80269 9.92847 3.42058C9.90525 3.24546 9.92312 3.20996 10.0284 3.07107C10.5942 2.84198 11.9071 3.80231 12.4562 4.09184C12.9105 4.32924 13.3801 4.53604 13.8619 4.71084C17.2761 5.94191 20.3199 5.5812 23.2204 3.3268C23.5591 3.06348 24.7205 2.15391 25.0736 2.61621C25.0574 3.32674 23.0828 5.59358 22.6716 6.49491C22.3585 7.1812 22.0516 8.08162 21.7216 8.70958C21.5868 8.85427 21.3391 8.85041 21.1308 8.87498C20.8033 9.43969 20.9744 13.5688 20.9856 14.4595C20.6085 14.8233 18.3074 17.0301 18.0298 17.0691C17.6674 16.7855 15.5433 14.7656 15.2891 14.4006C15.2268 13.113 15.3805 10.259 15.2222 9.23139Z" fill="#B98833"></path>
<path d="M15.2222 9.23139C16.6729 8.36008 19.6278 8.03151 21.1308 8.87498C20.8033 9.43969 20.9744 13.5688 20.9856 14.4595C20.6085 14.8233 18.3074 17.0301 18.0298 17.0691C17.6674 16.7855 15.5433 14.7656 15.2891 14.4006C15.2268 13.113 15.3805 10.259 15.2222 9.23139Z" fill="#232121"></path>
<path d="M136.67 7.29228C137.288 7.26557 138.262 7.12768 138.717 7.59908C138.903 8.5634 138.867 26.4972 138.76 26.7396C138.667 26.9507 138.558 27.0454 138.343 27.1247C137.829 27.1755 136.68 27.2823 136.304 26.8876C136.063 25.9699 136.13 8.27091 136.252 7.77613C136.315 7.52069 136.454 7.42212 136.67 7.29228Z" fill="#232121"></path>
<path d="M56.7977 7.36521C57.3821 7.31282 58.2231 7.21406 58.7192 7.52641C59.1818 8.02602 59.066 10.352 59.0661 11.1L59.066 15.3907C59.0656 19.0151 59.1314 22.8757 59.0365 26.4847L58.6247 27.0656C58.1229 27.1522 57.0625 27.3249 56.6429 26.9325C56.5071 26.8054 56.4555 26.1234 56.4554 25.9066C56.4506 20.0247 56.4558 14.1415 56.454 8.25986C56.4538 7.81942 56.4788 7.65127 56.7977 7.36521Z" fill="#B98833"></path>
<path d="M94.1716 12.6328C94.7005 12.597 95.5967 12.5254 96.0344 12.7864C96.2169 12.9865 96.3594 13.5909 96.3586 13.8666C96.3549 18.0429 96.4773 22.3076 96.3549 26.4778L95.9432 27.0567C95.4305 27.1575 94.4839 27.2999 94.0187 26.9928C93.8125 26.8565 93.7695 26.1896 93.7672 25.929C93.7339 22.3241 93.8014 18.7187 93.7546 15.1139C93.7457 14.4293 93.5603 13.0312 94.1716 12.6328Z" fill="#B98833"></path>
<path d="M2.91348 12.1291C4.11431 11.9597 5.23252 12.7753 5.43887 13.9711C5.64523 15.1669 4.86511 16.3105 3.67704 16.5539C2.87514 16.7181 2.04746 16.4326 1.51709 15.8087C0.986724 15.1849 0.837754 14.3217 1.12833 13.5559C1.41891 12.7902 2.10297 12.2435 2.91348 12.1291Z" fill="#232121"></path>
<path d="M32.3632 12.5642C33.5299 12.1641 34.7993 12.7888 35.1948 13.9577C35.5903 15.1266 34.9613 16.3946 33.7916 16.786C32.6281 17.1753 31.3692 16.5498 30.9757 15.3871C30.5823 14.2244 31.2027 12.9622 32.3632 12.5642Z" fill="#232121"></path>
<path d="M93.8006 7.37085C93.8311 7.36769 93.8607 7.365 93.8911 7.36279C94.5574 7.31672 95.869 7.17006 96.3586 7.59594C96.625 8.11336 96.5211 9.25615 96.467 9.84878C96.4462 10.0813 96.2934 10.2578 96.1302 10.4172C95.5678 10.504 94.0759 10.5801 93.6604 10.2208C93.3117 9.67157 93.2924 7.83001 93.8006 7.37085Z" fill="#B98833"></path>
<path d="M25.6754 15.0574C27.0682 16.2448 28.182 18.651 27.9346 20.4916C26.9573 20.6831 25.024 22.5805 24.3512 23.3641C22.0072 26.094 21.0629 30.4943 20.9835 34H15.2932C15.2808 31.8166 15.7896 28.4325 16.4051 26.3354C18.0268 20.8091 20.836 17.8167 25.6754 15.0574Z" fill="#232121"></path>
<path d="M144.498 12.5494C144.461 7.71874 145.441 6.19664 150.534 6.42359C151.294 6.45744 151.459 6.63936 151.938 7.16693V8.24893C151.583 8.59034 151.463 8.70162 151.044 8.95633C150.477 8.99137 149.859 8.95507 149.283 8.98313C147.066 9.09084 146.994 10.7127 147.108 12.4984C148.1 12.6156 149.095 12.528 150.091 12.5107C150.469 12.5093 150.837 12.5693 151.118 12.8395C151.528 13.2351 151.46 13.8003 151.464 14.3334C151.345 14.584 151.31 14.6643 151.13 14.8731C150.695 15.1058 147.842 15.0224 147.049 15.074L147.051 22.7785C147.052 23.9462 147.135 25.1611 147.063 26.324C147.051 26.5185 147.039 26.8225 146.892 26.9672C146.652 27.2033 145.994 27.1805 145.669 27.1769C145.344 27.1733 144.871 27.1681 144.634 26.9184C144.365 26.6357 144.495 16.1582 144.506 15.0745C143.859 15.0042 141.866 15.1775 141.677 14.8089C140.179 11.8843 143.632 12.5522 144.498 12.5494Z" fill="#232121"></path>
<path d="M7.95305 20.273C7.80045 18.8799 9.44557 15.6119 10.7931 15.1603C13.4743 16.6359 14.7269 17.7696 16.7313 20.0699C16.0038 21.2127 15.3915 22.425 14.9033 23.6888C14.5749 24.5366 14.1585 25.8555 13.7319 26.6033C12.9005 24.0349 10.566 21.5483 8.15573 20.2944C8.08755 20.2589 8.02323 20.2461 7.95305 20.273Z" fill="#232121"></path>
<path d="M25.2549 14.4917C26.4363 13.138 27.2116 12.3161 28.0552 10.671C28.4454 9.90997 28.7097 8.36178 29.2253 8.0563C30.1256 8.09824 29.4858 10.5013 29.4219 11.1761C29.0741 14.8498 30.5063 18.5307 33.7791 20.448C34.313 20.7597 35.2103 20.9897 35.2963 21.6676C35.2332 21.7699 35.1725 21.8835 35.0246 21.8823C33.5402 21.8708 32.1463 21.1408 30.642 20.9692C29.8594 20.8799 28.3955 21.1225 27.9346 20.4916C28.182 18.651 27.0682 16.2448 25.6754 15.0574L25.2549 14.4917Z" fill="#B98833"></path>
<path d="M0 20.6958C1.23954 20.4855 3.37485 19.0628 4.30605 18.2199C6.26663 16.4121 7.40355 13.8809 7.4531 11.2136C7.46393 10.4224 7.27317 9.50093 7.3079 8.79079C7.45666 8.54582 7.58041 8.45532 7.86254 8.50417C7.94 8.57291 8.10544 8.7268 8.14179 8.81611C8.91602 10.7177 9.6004 12.6467 10.9381 14.2462C11.2167 14.5793 11.0195 14.8683 10.7931 15.1603C9.44557 15.612 7.80045 18.88 7.95305 20.2731C7.85334 20.5463 7.92123 20.46 7.68197 20.6347C7.36713 20.705 6.55584 20.6047 6.21467 20.5743C4.16584 20.3919 2.44133 20.83 0.532358 21.4982C0.383853 21.5501 0.129533 21.3559 0 21.2554V20.6958Z" fill="#B98833"></path>
<path d="M16.6831 0H18.3516C20.0913 0.771525 20.1759 3.17712 18.5565 4.01764C18.0267 4.29113 17.4091 4.33947 16.8433 4.15174C14.8547 3.50594 14.7987 0.916025 16.6831 0Z" fill="#232121"></path>
</g>
<defs>
<clipPath id="clip0_104_656">
<rect width="151.938" height="34" fill="white"></rect>
</clipPath>
</defs>
</svg>